<svg preserveAspectRatio="none" overflow="visible" style="display: block;" width="20" height="20" viewBox="0 0 20 20" fill="none" xmlns="http://www.w3.org/2000/svg">
<g id="group">
<path id="Vector" d="M0.791667 16.6667V14.7083C0.791667 14.2222 0.916667 13.7813 1.16667 13.3854C1.41667 12.9896 1.76389 12.6944 2.20833 12.5C3.22222 12.0556 4.13542 11.7361 4.94792 11.5417C5.76042 11.3472 6.59722 11.25 7.45833 11.25C8.31944 11.25 9.15278 11.3472 9.95833 11.5417C10.7639 11.7361 11.6736 12.0556 12.6875 12.5C13.1319 12.6944 13.4826 12.9896 13.7396 13.3854C13.9965 13.7813 14.125 14.2222 14.125 14.7083V16.6667H0.791667ZM15.375 16.6667V14.7083C15.375 13.8333 15.1528 13.1146 14.7083 12.5521C14.2639 11.9896 13.6806 11.5347 12.9583 11.1875C13.9167 11.2986 14.8194 11.4618 15.6667 11.6771C16.5139 11.8924 17.2014 12.1389 17.7292 12.4167C18.1875 12.6806 18.5486 13.0069 18.8125 13.3958C19.0764 13.7847 19.2083 14.2222 19.2083 14.7083V16.6667H15.375ZM5.20833 9.10417C4.625 8.52083 4.33333 7.77083 4.33333 6.85417C4.33333 5.9375 4.625 5.1875 5.20833 4.60417C5.79167 4.02083 6.54167 3.72917 7.45833 3.72917C8.375 3.72917 9.125 4.02083 9.70833 4.60417C10.2917 5.1875 10.5833 5.9375 10.5833 6.85417C10.5833 7.77083 10.2917 8.52083 9.70833 9.10417C9.125 9.6875 8.375 9.97917 7.45833 9.97917C6.54167 9.97917 5.79167 9.6875 5.20833 9.10417ZM14.0833 9.10417C13.5 9.6875 12.75 9.97917 11.8333 9.97917C11.6806 9.97917 11.5104 9.96875 11.3229 9.94792C11.1354 9.92708 10.9653 9.88889 10.8125 9.83333C11.1458 9.48611 11.3993 9.05903 11.5729 8.55208C11.7465 8.04514 11.8333 7.47917 11.8333 6.85417C11.8333 6.22917 11.7465 5.67708 11.5729 5.19792C11.3993 4.71875 11.1458 4.27778 10.8125 3.875C10.9653 3.83333 11.1354 3.79861 11.3229 3.77083C11.5104 3.74306 11.6806 3.72917 11.8333 3.72917C12.75 3.72917 13.5 4.02083 14.0833 4.60417C14.6667 5.1875 14.9583 5.9375 14.9583 6.85417C14.9583 7.77083 14.6667 8.52083 14.0833 9.10417ZM2.04167 15.4167H12.875V14.7083C12.875 14.4861 12.809 14.2708 12.6771 14.0625C12.5451 13.8542 12.3819 13.7083 12.1875 13.625C11.1875 13.1806 10.3472 12.8819 9.66667 12.7292C8.98611 12.5764 8.25 12.5 7.45833 12.5C6.66667 12.5 5.92708 12.5764 5.23958 12.7292C4.55208 12.8819 3.70833 13.1806 2.70833 13.625C2.51389 13.7083 2.35417 13.8542 2.22917 14.0625C2.10417 14.2708 2.04167 14.4861 2.04167 14.7083V15.4167ZM8.80208 8.19792C9.15625 7.84375 9.33333 7.39583 9.33333 6.85417C9.33333 6.3125 9.15625 5.86458 8.80208 5.51042C8.44792 5.15625 8 4.97917 7.45833 4.97917C6.91667 4.97917 6.46875 5.15625 6.11458 5.51042C5.76042 5.86458 5.58333 6.3125 5.58333 6.85417C5.58333 7.39583 5.76042 7.84375 6.11458 8.19792C6.46875 8.55208 6.91667 8.72917 7.45833 8.72917C8 8.72917 8.44792 8.55208 8.80208 8.19792Z" fill="#4A4E54"/>
</g>
</svg>
