<svg preserveAspectRatio="none" overflow="visible" style="display: block;" width="22" height="22" viewBox="0 0 22 22" fill="none" xmlns="http://www.w3.org/2000/svg">
<g id="edit">
<path id="Vector" d="M4.125 17.875H5.13333L15.95 7.08125L14.9417 6.07292L4.125 16.8667V17.875ZM2.75 19.25V16.3167L15.9271 3.1625C16.0493 3.04028 16.1944 2.94479 16.3625 2.87604C16.5306 2.80729 16.7063 2.77292 16.8896 2.77292C17.0576 2.77292 17.2257 2.80729 17.3938 2.87604C17.5618 2.94479 17.7146 3.04028 17.8521 3.1625L18.8604 4.17083C18.9979 4.30833 19.0972 4.46111 19.1583 4.62917C19.2194 4.79722 19.25 4.96528 19.25 5.13333C19.25 5.30139 19.2156 5.47326 19.1469 5.64896C19.0781 5.82465 18.9826 5.97361 18.8604 6.09583L5.68333 19.25H2.75ZM15.4458 6.57708L14.9417 6.07292L15.95 7.08125L15.4458 6.57708Z" fill="#0B62D6"/>
</g>
</svg>
